<svg width="112" height="106" xmlns="http://www.w3.org/2000/svg" preserveAspectRatio="xMidYMid meet" version="1.0">

 <g>
  <title>Layer 1</title>
  <g stroke-width="100" id="svg_1" fill="#000000" transform="translate(0, 150) scale(0.1, -0.1)">
   <path id="svg_2" d="m-170,840l0,-750l750,0l750,0l0,750l0,750l-750,0l-750,0l0,-750zm907,548c23,-19 13,-30 -25,-27c-82,6 -180,-84 -187,-173c-2,-23 -4,-45 -5,-48c0,-3 -5,2 -9,10c-5,8 -5,38 0,68c19,125 157,228 226,170zm153,-103c31,-16 50,-43 50,-69c0,-25 -26,-19 -47,12c-21,31 -27,34 -110,40c-50,3 -71,0 -108,-18c-53,-26 -69,-21 -28,8c58,41 188,56 243,27zm-183,-87c13,-12 23,-27 23,-33c0,-7 13,-26 29,-42c19,-21 33,-49 41,-86c23,-114 -17,-202 -112,-242c-41,-17 -213,-21 -237,-6c-15,10 -4,13 103,26c59,8 116,56 116,99c0,24 -3,26 -42,26c-56,0 -132,-44 -181,-104c-43,-51 -60,-51 -77,0c-15,45 -6,84 35,144c19,28 30,50 25,50c-12,0 -19,53 -9,72c7,13 21,17 59,15l49,-2l-6,-37c-8,-56 4,-46 22,17c31,105 108,154 162,103zm-299,-179c-5,-35 -28,-36 -28,-1c0,16 3,32 7,36c11,11 25,-10 21,-35zm242,-103c0,-43 -37,-70 -115,-85c-60,-11 -50,0 30,34c47,19 63,31 56,38c-8,8 -15,6 -23,-4c-12,-15 -106,-59 -125,-59c-15,0 51,51 92,70c48,23 85,26 85,6zm210,-68c0,-27 -20,-77 -42,-104c-14,-18 -51,-5 -42,15c4,9 8,30 10,46c1,17 10,50 20,74l17,44l19,-23c10,-12 18,-35 18,-52zm-520,25c0,-3 -7,-14 -15,-23c-17,-19 -25,-84 -10,-85c6,0 29,-15 52,-32c22,-18 43,-30 45,-27c6,6 100,-16 108,-25c3,-3 14,-13 25,-21c19,-14 19,-14 6,3c-13,17 -10,18 55,13c38,-3 59,-3 46,0c-12,3 -20,8 -18,12c2,4 -21,7 -52,7c-70,1 -104,11 -82,26c10,6 5,7 -17,3c-46,-9 -140,36 -149,71c-6,25 5,51 13,29c17,-49 28,-52 270,-73c113,-10 181,-30 216,-65c24,-24 22,-34 -15,-56c-27,-16 -51,-20 -123,-20c-183,1 -327,43 -406,119c-58,56 -64,89 -21,119c39,27 72,39 72,25zm430,-76c0,-28 -24,-43 -60,-37l-35,5l40,21c49,26 55,27 55,11zm-239,-277c5,0 9,0 0,0" fill="#fff"/>
   <path id="svg_3" d="m631,1125c-7,-19 -28,-56 -47,-81c-20,-25 -34,-47 -32,-49c2,-1 32,9 68,24c60,24 65,29 68,59c2,22 -2,34 -12,38c-9,3 -16,15 -16,25c0,30 -15,22 -29,-16zm29,-55c0,-10 -9,-24 -19,-30c-35,-18 -43,-11 -24,20c20,34 43,40 43,10z" fill="#fff"/>
  </g>
 </g>
</svg>