<svg fill="#000000" height="200px" width="200px" version="1.1" id="Layer_1" xmlns="http://www.w3.org/2000/svg" xmlns:xlink="http://www.w3.org/1999/xlink" viewBox="0 0 511.999 511.999" xml:space="preserve" transform="rotate(0)matrix(-1, 0, 0, 1, 0, 0)"><g id="SVGRepo_bgCarrier" stroke-width="0"></g><g id="SVGRepo_tracerCarrier" stroke-linecap="round" stroke-linejoin="round"></g><g id="SVGRepo_iconCarrier"> <g> <g> <g> <path d="M456.967,218.372c0.933-1.295,1.965-2.525,3.074-3.691c5.473,5.969,13.33,9.718,22.046,9.718 c16.494,0,29.912-13.419,29.912-29.914c0-16.495-13.418-29.914-29.912-29.914c-16.495,0-29.915,13.419-29.915,29.914 c0,0.997,0.052,1.982,0.147,2.955c-4.174,3.342-7.768,7.242-10.715,11.562c-12.058-6.184-25.272-10.415-39.222-12.295 c20.494-15.397,33.777-39.899,33.777-67.447c0-46.493-37.823-84.318-84.316-84.318c-28.54,0-54.443,14.135-69.893,37.106 c-15.177-22.374-40.813-37.106-69.826-37.106c-46.492,0-84.316,37.825-84.316,84.318c0,27.351,13.099,51.691,33.344,67.107 c-49.51,5.514-90.189,40.697-103.8,87.317L4.968,309.876C1.923,311.397,0,314.509,0,317.914s1.923,6.516,4.968,8.038 l52.384,26.191c14.842,50.834,61.864,88.079,117.428,88.079h18.806v17.848c0,4.963,4.024,8.987,8.987,8.987 c4.963,0,8.987-4.024,8.987-8.987v-17.848h20.659v17.848c0,4.963,4.024,8.987,8.987,8.987c4.963,0,8.987-4.024,8.987-8.987 v-17.848h36.755v17.848c0,4.963,4.023,8.987,8.987,8.987c4.964,0,8.987-4.024,8.987-8.987v-17.848h20.658v17.848 c0,4.963,4.023,8.987,8.987,8.987c4.963,0,8.987-4.024,8.987-8.987v-17.848h42.416c67.442,0,122.31-54.866,122.31-122.309 C508.283,276.921,488.011,240.577,456.967,218.372z M482.088,182.546c6.582,0,11.938,5.356,11.938,11.94 s-5.356,11.94-11.938,11.94c-6.584,0-11.941-5.356-11.941-11.94S475.503,182.546,482.088,182.546z M53.058,329.901 l-23.975-11.987l23.975-11.987c-0.386,3.945-0.588,7.943-0.588,11.987S52.672,325.956,53.058,329.901z M165.794,421.856 c-53.34-4.571-95.35-49.44-95.35-103.943c0-54.503,42.01-99.373,95.35-103.944V421.856z M207.001,422.248h-23.233V213.578h23.233 V422.248z M145.782,129.261c0-36.582,29.762-66.344,66.342-66.344c36.582,0,66.344,29.761,66.344,66.344v66.342h-66.344 C175.543,195.604,145.782,165.842,145.782,129.261z M250.785,422.248h-25.81V213.578h25.81V422.248z M291.992,422.248h-23.233 V213.578h23.233V422.248z M335.779,422.248h-25.812V213.578h25.812V422.248z M376.986,422.248h-23.233V213.578h23.233V422.248z M351.844,195.604h-55.401v-66.342c0-9.792-1.696-19.193-4.78-27.945c10.864-23.433,34.127-38.399,60.182-38.399 c36.581,0,66.342,29.761,66.342,66.344C418.186,165.842,388.425,195.604,351.844,195.604z M394.96,421.856V213.969 c14.025,1.202,27.264,5.189,39.164,11.406c-1.154,4.389-1.765,8.963-1.765,13.635c0,4.963,4.024,8.987,8.987,8.987 c4.964,0,8.987-4.024,8.987-8.987c0-1.025,0.06-2.038,0.145-3.047c24.241,19.122,39.831,48.749,39.831,81.95 C490.309,372.416,448.3,417.284,394.96,421.856z"></path> <circle cx="454.224" cy="289.114" r="9.754"></circle> </g> </g> </g> </g></svg>